<svg xmlns="http://www.w3.org/2000/svg" xmlns:svg="http://www.w3.org/2000/svg" xmlns:xlink="http://www.w3.org/1999/xlink" id="svg7209" width="46" height="38" version="1.0"><defs id="defs7211"><linearGradient id="linearGradient13516"><stop style="stop-color:#10c549;stop-opacity:1" id="stop13518" offset="0"/><stop style="stop-color:#73f39b;stop-opacity:1" id="stop13520" offset="1"/></linearGradient><linearGradient id="linearGradient13524" x1="106.91" x2="73.575" y1="114.908" y2="85.921" gradientTransform="matrix(0.10672385,0,0,0.10672385,-201.16772,969.80392)" gradientUnits="userSpaceOnUse" xlink:href="#linearGradient13516"/><linearGradient id="linearGradient3143"><stop id="stop3145" offset="0" style="stop-color:#1f670b;stop-opacity:1"/><stop id="stop3151" offset=".733" style="stop-color:#002a00;stop-opacity:1"/><stop id="stop3153" offset="1" style="stop-color:#002600;stop-opacity:1"/></linearGradient><linearGradient id="linearGradient40457"><stop id="stop40459" offset="0" style="stop-color:#22253f;stop-opacity:1"/><stop id="stop40461" offset="1" style="stop-color:#373c66;stop-opacity:1"/></linearGradient><radialGradient id="radialGradient2680" cx="-213.909" cy="963.948" r="8.207" fx="-213.909" fy="963.948" gradientTransform="matrix(2.8023188,0,0,2.3149589,407.83726,-1250.6595)" gradientUnits="userSpaceOnUse" xlink:href="#linearGradient3143"/></defs><metadata id="metadata7214"/><g id="layer1" transform="translate(214.60323,-961.83962)"><rect style="fill:url(#radialGradient2680);fill-opacity:1;stroke:none;stroke-width:1.13102949;stroke-miterlimit:4;stroke-dasharray:none;stroke-opacity:1" id="rect2672" width="46" height="38" x="-214.603" y="961.84"/><path id="path8587" style="fill:#000;fill-opacity:1;stroke:none;stroke-width:.27906713;stroke-linecap:butt;stroke-miterlimit:26;stroke-dasharray:none;stroke-opacity:1" d="m -182.56742,972.11396 c -3.01275,-0.0186 -7.32469,1.31561 -11.64569,3.81034 -6.91359,3.99156 -11.24636,9.45304 -9.66672,12.18906 1.57964,2.73602 8.47535,1.71744 15.38894,-2.27413 6.91359,-3.99156 11.23965,-9.45304 9.66001,-12.18906 -0.59236,-1.02601 -1.9289,-1.52504 -3.73654,-1.53621 z m -0.25492,0.51654 c 1.70793,-0.0367 2.96192,0.38472 3.49505,1.30813 1.42167,2.46241 -2.81501,7.57228 -9.45206,11.40418 -6.63705,3.8319 -13.17568,4.9378 -14.59736,2.47538 -1.42167,-2.46242 2.8083,-7.56557 9.44535,-11.39747 4.14815,-2.39494 8.26246,-3.72898 11.10902,-3.79022 z"/><path d="m -191.35535,966.41857 c -3.15928,0 -5.72222,6.48007 -5.72222,14.4632 0,7.98313 2.56294,14.46319 5.72222,14.46319 3.15928,0 5.72221,-6.48006 5.72221,-14.46319 0,-7.98313 -2.56293,-14.4632 -5.72221,-14.4632 z m 0,0.57692 c 2.84335,0 5.15201,6.22247 5.15201,13.88628 0,7.6638 -2.30866,13.87956 -5.15201,13.87956 -2.84336,0 -5.15201,-6.21576 -5.15201,-13.87956 0,-7.66381 2.30865,-13.88628 5.15201,-13.88628 z" style="fill:#000;fill-opacity:1;stroke:none;stroke-width:.27906716;stroke-linecap:butt;stroke-miterlimit:26;stroke-dasharray:none;stroke-opacity:1" id="path8591"/><path d="m -178.82986,988.11336 c 1.57964,-2.73601 -2.75079,-8.19562 -9.66439,-12.18718 -6.91359,-3.99157 -13.80695,-5.01203 -15.3866,-2.27601 -1.57964,2.73602 2.75079,8.19562 9.66439,12.18718 6.91359,3.99157 13.80696,5.01203 15.3866,2.27601 z m -0.49963,-0.28846 c -1.42167,2.46242 -7.96482,1.35054 -14.60187,-2.48136 -6.63705,-3.8319 -10.86573,-8.93914 -9.44405,-11.40156 1.42168,-2.46241 7.95901,-1.35389 14.59606,2.47801 6.63705,3.83191 10.87154,8.9425 9.44986,11.40491 z" style="fill:#000;fill-opacity:1;stroke:none;stroke-width:.27906716;stroke-linecap:butt;stroke-miterlimit:26;stroke-dasharray:none;stroke-opacity:1" id="path8593"/><path d="m -188.84103,980.88176 c 0,1.38514 -1.12287,2.50802 -2.50801,2.50802 -1.38513,0 -2.50801,-1.12288 -2.50801,-2.50802 0,-1.38513 1.12288,-2.50801 2.50801,-2.50801 1.38514,0 2.50801,1.12288 2.50801,2.50801 z" style="fill:#000;fill-opacity:1;stroke:none;stroke-width:.38216311;stroke-linecap:butt;stroke-miterlimit:26;stroke-dasharray:none;stroke-opacity:1" id="path8595"/><path id="path3337" style="fill:#73f39b;fill-opacity:1;stroke:none;stroke-width:.27906713;stroke-linecap:butt;stroke-miterlimit:26;stroke-dasharray:none;stroke-opacity:1" d="m -182.88768,971.7085 c -3.01275,-0.0186 -7.32469,1.31561 -11.64569,3.81034 -6.91359,3.99156 -11.24636,9.45304 -9.66672,12.18906 1.57964,2.73602 8.47535,1.71744 15.38894,-2.27413 6.91359,-3.99156 11.23965,-9.45304 9.66001,-12.18906 -0.59236,-1.02601 -1.9289,-1.52504 -3.73654,-1.53621 z m -0.25492,0.51654 c 1.70793,-0.0367 2.96192,0.38472 3.49505,1.30813 1.42167,2.46241 -2.81501,7.57228 -9.45206,11.40418 -6.63705,3.8319 -13.17568,4.9378 -14.59736,2.47538 -1.42167,-2.46242 2.8083,-7.56557 9.44535,-11.39747 4.14815,-2.39494 8.26246,-3.72898 11.10902,-3.79022 z"/><path d="m -191.67561,966.01311 c -3.15928,0 -5.72222,6.48007 -5.72222,14.4632 0,7.98313 2.56294,14.46319 5.72222,14.46319 3.15928,0 5.72221,-6.48006 5.72221,-14.46319 0,-7.98313 -2.56293,-14.4632 -5.72221,-14.4632 z m 0,0.57692 c 2.84335,0 5.15201,6.22247 5.15201,13.88628 0,7.6638 -2.30866,13.87956 -5.15201,13.87956 -2.84336,0 -5.15201,-6.21576 -5.15201,-13.87956 0,-7.66381 2.30865,-13.88628 5.15201,-13.88628 z" style="fill:#73f39b;fill-opacity:1;stroke:none;stroke-width:.27906716;stroke-linecap:butt;stroke-miterlimit:26;stroke-dasharray:none;stroke-opacity:1" id="path4312"/><path d="m -179.15012,987.7079 c 1.57964,-2.73601 -2.75079,-8.19562 -9.66439,-12.18718 -6.91359,-3.99157 -13.80695,-5.01203 -15.3866,-2.27601 -1.57964,2.73602 2.75079,8.19562 9.66439,12.18718 6.91359,3.99157 13.80696,5.01203 15.3866,2.27601 z m -0.49963,-0.28846 c -1.42167,2.46242 -7.96482,1.35054 -14.60187,-2.48136 -6.63705,-3.8319 -10.86573,-8.93914 -9.44405,-11.40156 1.42168,-2.46241 7.95901,-1.35389 14.59606,2.47801 6.63705,3.83191 10.87154,8.9425 9.44986,11.40491 z" style="fill:#73f39b;fill-opacity:1;stroke:none;stroke-width:.27906716;stroke-linecap:butt;stroke-miterlimit:26;stroke-dasharray:none;stroke-opacity:1" id="path18907"/><path d="m -189.16129,980.4763 c 0,1.38514 -1.12287,2.50802 -2.50801,2.50802 -1.38513,0 -2.50801,-1.12288 -2.50801,-2.50802 0,-1.38513 1.12288,-2.50801 2.50801,-2.50801 1.38514,0 2.50801,1.12288 2.50801,2.50801 z" style="fill:url(#linearGradient13524);fill-opacity:1;stroke:none;stroke-width:.38216311;stroke-linecap:butt;stroke-miterlimit:26;stroke-dasharray:none;stroke-opacity:1" id="path2677"/></g></svg>